<svg width="26" height="26" viewBox="0 0 26 26" fill="none" xmlns="http://www.w3.org/2000/svg">
<path d="M6.4202 15.4656L5.59745 18.537L2.59033 18.6006C1.69164 16.9338 1.18188 15.0266 1.18188 13C1.18188 11.0403 1.65849 9.1922 2.50331 7.56494H2.50395L5.18114 8.05576L6.35391 10.7169C6.10845 11.4325 5.97467 12.2007 5.97467 13C5.97476 13.8675 6.1319 14.6987 6.4202 15.4656Z" fill="#FBBB00"/>
<path d="M24.6119 10.7921C24.7476 11.507 24.8184 12.2453 24.8184 12.9999C24.8184 13.846 24.7294 14.6713 24.5599 15.4675C23.9846 18.1765 22.4814 20.5421 20.3989 22.2161L20.3983 22.2155L17.0262 22.0434L16.549 19.0642C17.9308 18.2538 19.0107 16.9856 19.5795 15.4675H13.26V10.7921H19.6717H24.6119Z" fill="#518EF8"/>
<path d="M20.3981 22.2156L20.3988 22.2162C18.3735 23.8441 15.8007 24.8181 13.0001 24.8181C8.49942 24.8181 4.58645 22.3026 2.59033 18.6006L6.42021 15.4656C7.41824 18.1292 9.98773 20.0253 13.0001 20.0253C14.2949 20.0253 15.5079 19.6753 16.5488 19.0643L20.3981 22.2156Z" fill="#28B446"/>
<path d="M20.5437 3.90253L16.7151 7.03693C15.6379 6.36357 14.3644 5.97459 13.0002 5.97459C9.91965 5.97459 7.30211 7.95769 6.35407 10.7168L2.50406 7.56487H2.50342C4.47031 3.77267 8.43264 1.18176 13.0002 1.18176C15.8677 1.18176 18.4969 2.2032 20.5437 3.90253Z" fill="#F14336"/>
</svg>
