<svg width="24" height="22" viewBox="0 0 24 22" fill="none" xmlns="http://www.w3.org/2000/svg">
<path fill-rule="evenodd" clip-rule="evenodd" d="M11.8383 0.250016C10.132 0.249748 9.09078 0.249584 8.22326 0.531458C6.47274 1.10024 5.10031 2.47267 4.53153 4.22319L4.52291 4.25003H4.23087C0.525334 4.25003 -1.06647 8.95211 1.87705 11.203L1.8877 11.2112L4.35461 12.9615C4.44402 13.025 4.53679 13.0834 4.63249 13.1365C4.64341 13.1651 4.65462 13.1938 4.66613 13.2224C4.92162 13.857 5.42031 14.6184 5.89993 15.1063C6.68156 15.9012 7.49044 16.2538 8.78209 16.8167L8.86793 16.8541C9.42429 17.0967 9.98686 17.3167 10.5092 17.4772C10.7566 17.5532 11.0063 17.6196 11.2501 17.6678V20.25H8.00011C7.58589 20.25 7.25011 20.5858 7.25011 21C7.25011 21.4142 7.58589 21.75 8.00011 21.75H16.0001C16.4143 21.75 16.7501 21.4142 16.7501 21C16.7501 20.5858 16.4143 20.25 16.0001 20.25H12.7501V17.6678C12.9939 17.6196 13.2436 17.5532 13.491 17.4772C14.0134 17.3167 14.5759 17.0967 15.1323 16.8541L15.2181 16.8167C16.5098 16.2538 17.3187 15.9012 18.1003 15.1063C18.5799 14.6184 19.0786 13.857 19.3341 13.2224C19.3453 13.1945 19.3562 13.1667 19.3668 13.1388C19.4646 13.0832 19.5595 13.0227 19.6513 12.9576L22.1126 11.2112L22.1233 11.203C25.0668 8.95211 23.475 4.25003 19.7695 4.25003H19.4773L19.4687 4.22319C18.8999 2.47267 17.5275 1.10024 15.777 0.531458C14.9094 0.249584 13.8682 0.249748 12.1619 0.250016H11.8383ZM4.23087 5.75003H4.28317C4.25004 6.33514 4.25007 7.03687 4.2501 7.91608L4.2501 9.41602C4.25002 10.0411 4.24996 10.5801 4.27009 11.0623L2.77825 10.0038C0.987768 8.62126 1.96397 5.75003 4.23087 5.75003ZM21.2221 10.0038L19.7301 11.0624C19.7503 10.5804 19.7502 10.0416 19.7501 9.41695L19.7501 7.91603C19.7501 7.03693 19.7502 6.33509 19.717 5.75003H19.7695C22.0364 5.75003 23.0126 8.62126 21.2221 10.0038Z" fill="#0043AB"/>
</svg>
