<svg width="22" height="21" viewBox="0 0 22 21" fill="none" xmlns="http://www.w3.org/2000/svg">
<path fill-rule="evenodd" clip-rule="evenodd" d="M5.29367 2.96556C2.62685 4.90311 1.29344 5.87189 0.769737 7.30291C0.727726 7.41771 0.689938 7.534 0.656451 7.65157C0.239006 9.11711 0.748322 10.6846 1.76696 13.8197C2.78559 16.9547 3.2949 18.5222 4.49405 19.4625C4.59025 19.5379 4.68918 19.6098 4.79064 19.678C6.05546 20.5279 7.70364 20.5279 11 20.5279C14.2964 20.5279 15.9446 20.5279 17.2094 19.678C17.3108 19.6098 17.4098 19.5379 17.506 19.4625C18.7051 18.5222 19.2144 16.9547 20.2331 13.8197C21.2517 10.6846 21.761 9.11711 21.3436 7.65157C21.3101 7.534 21.2723 7.41771 21.2303 7.30291C20.7066 5.87189 19.3732 4.90312 16.7064 2.96557C14.0395 1.02801 12.7061 0.0592252 11.1833 0.00336104C11.0611 -0.00112035 10.9389 -0.00112035 10.8167 0.00336104C9.29389 0.0592251 7.96048 1.02801 5.29367 2.96556ZM9 15.0697C8.58579 15.0697 8.25 15.4054 8.25 15.8197C8.25 16.2339 8.58579 16.5697 9 16.5697H13C13.4142 16.5697 13.75 16.2339 13.75 15.8197C13.75 15.4054 13.4142 15.0697 13 15.0697H9Z" fill="#0043AB"/>
</svg>
