<svg width="25" height="24" viewBox="0 0 25 24" fill="none" xmlns="http://www.w3.org/2000/svg">
<path d="M5.56107 21.0451L6.00191 20.4383L5.56107 21.0451ZM4.45491 19.9389L5.06168 19.4981L4.45491 19.9389ZM20.5451 19.9389L19.9383 19.4981L20.5451 19.9389ZM19.4389 21.0451L19.8798 21.6518L19.4389 21.0451ZM19.4389 4.95492L19.8798 4.34815L19.4389 4.95492ZM20.5451 6.06107L19.9383 6.50191L20.5451 6.06107ZM5.56107 4.95492L6.00191 5.56168H6.00191L5.56107 4.95492ZM4.45491 6.06107L5.06168 6.50191L4.45491 6.06107ZM19.7178 16.0616L19.6005 15.3208H19.6005L19.7178 16.0616ZM15.5616 20.2178L14.8208 20.1005V20.1005L15.5616 20.2178ZM9.5 13.25C9.08579 13.25 8.75 13.5858 8.75 14C8.75 14.4142 9.08579 14.75 9.5 14.75V13.25ZM15.5 14.75C15.9142 14.75 16.25 14.4142 16.25 14C16.25 13.5858 15.9142 13.25 15.5 13.25V14.75ZM14.75 5C14.75 5.41421 15.0858 5.75 15.5 5.75C15.9142 5.75 16.25 5.41421 16.25 5H14.75ZM16.25 2C16.25 1.58579 15.9142 1.25 15.5 1.25C15.0858 1.25 14.75 1.58579 14.75 2H16.25ZM8.75 5C8.75 5.41421 9.08579 5.75 9.5 5.75C9.91421 5.75 10.25 5.41421 10.25 5H8.75ZM10.25 2C10.25 1.58579 9.91421 1.25 9.5 1.25C9.08579 1.25 8.75 1.58579 8.75 2H10.25ZM21.4711 16L22.2206 16.0257L21.4711 16ZM3.52893 10L2.77937 9.97432L3.52893 10ZM21.4711 10L22.2206 9.97432L21.4711 10ZM12.5 21.25C10.6084 21.25 9.24999 21.249 8.19804 21.135C7.16013 21.0225 6.50992 20.8074 6.00191 20.4383L5.12023 21.6518C5.92656 22.2377 6.87094 22.5 8.03648 22.6263C9.18798 22.751 10.6418 22.75 12.5 22.75V21.25ZM2.75 13C2.75 14.8582 2.74897 16.312 2.87373 17.4635C3.00001 18.6291 3.26232 19.5734 3.84815 20.3798L5.06168 19.4981C4.69259 18.9901 4.47745 18.3399 4.365 17.302C4.25103 16.25 4.25 14.8916 4.25 13H2.75ZM6.00191 20.4383C5.64111 20.1762 5.32382 19.8589 5.06168 19.4981L3.84815 20.3798C4.20281 20.8679 4.63209 21.2972 5.12023 21.6518L6.00191 20.4383ZM19.9383 19.4981C19.6762 19.8589 19.3589 20.1762 18.9981 20.4383L19.8798 21.6518C20.3679 21.2972 20.7972 20.8679 21.1518 20.3798L19.9383 19.4981ZM18.9981 5.56168C19.3589 5.82382 19.6762 6.14111 19.9383 6.50191L21.1518 5.62023C20.7972 5.13209 20.3679 4.70281 19.8798 4.34815L18.9981 5.56168ZM5.12023 4.34815C4.63209 4.70281 4.20281 5.13209 3.84815 5.62023L5.06168 6.50191C5.32382 6.14111 5.64111 5.82382 6.00191 5.56168L5.12023 4.34815ZM19.6005 15.3208C17.1401 15.7105 15.2105 17.6401 14.8208 20.1005L16.3023 20.3352C16.5904 18.5166 18.0166 17.0904 19.8352 16.8023L19.6005 15.3208ZM9.5 14.75H15.5V13.25H9.5V14.75ZM21.4711 15.25C20.5888 15.25 20.0579 15.2484 19.6005 15.3208L19.8352 16.8023C20.147 16.7529 20.5338 16.75 21.4711 16.75L21.4711 15.25ZM20.75 13C20.75 14.1731 20.7499 15.1456 20.7215 15.9743L22.2206 16.0257C22.2501 15.1658 22.25 14.1648 22.25 13H20.75ZM20.7215 15.9743C20.658 17.8292 20.4509 18.7925 19.9383 19.4981L21.1518 20.3798C21.9537 19.2761 22.1564 17.8991 22.2206 16.0257L20.7215 15.9743ZM16.25 21.9711C16.25 21.0338 16.2529 20.647 16.3023 20.3352L14.8208 20.1005C14.7484 20.5579 14.75 21.0888 14.75 21.9711L16.25 21.9711ZM12.5 22.75C13.6648 22.75 14.6658 22.7501 15.5257 22.7206L15.4743 21.2215C14.6456 21.2499 13.6731 21.25 12.5 21.25V22.75ZM15.5257 22.7206C17.3991 22.6564 18.7761 22.4537 19.8798 21.6518L18.9981 20.4383C18.2925 20.9509 17.3292 21.158 15.4743 21.2215L15.5257 22.7206ZM4.25 13C4.25 11.8269 4.25009 10.8544 4.27849 10.0257L2.77937 9.97432C2.74991 10.8342 2.75 11.8352 2.75 13H4.25ZM4.27849 10.0257C4.34204 8.17075 4.54907 7.20746 5.06168 6.50191L3.84815 5.62023C3.0463 6.7239 2.84355 8.10087 2.77937 9.97432L4.27849 10.0257ZM3.52893 10.75H21.4711V9.25H3.52893V10.75ZM22.25 13C22.25 11.8352 22.2501 10.8342 22.2206 9.97432L20.7215 10.0257C20.7499 10.8544 20.75 11.8269 20.75 13H22.25ZM22.2206 9.97432C22.1564 8.10087 21.9537 6.7239 21.1518 5.62023L19.9383 6.50191C20.4509 7.20746 20.658 8.17075 20.7215 10.0257L22.2206 9.97432ZM16.25 5V4.02893H14.75V5H16.25ZM16.25 4.02893V2H14.75V4.02893H16.25ZM12.5 4.75C13.6731 4.75 14.6456 4.75009 15.4743 4.77849L15.5257 3.27937C14.6658 3.24991 13.6648 3.25 12.5 3.25V4.75ZM15.4743 4.77849C17.3292 4.84204 18.2925 5.04907 18.9981 5.56168L19.8798 4.34815C18.7761 3.5463 17.3991 3.34356 15.5257 3.27937L15.4743 4.77849ZM10.25 5V4.02893H8.75V5H10.25ZM10.25 4.02893V2H8.75V4.02893H10.25ZM12.5 3.25C11.3352 3.25 10.3342 3.24991 9.47432 3.27937L9.52568 4.77849C10.3544 4.75009 11.3269 4.75 12.5 4.75V3.25ZM9.47432 3.27937C7.60087 3.34356 6.2239 3.5463 5.12023 4.34815L6.00191 5.56168C6.70746 5.04907 7.67075 4.84204 9.52568 4.77849L9.47432 3.27937Z" fill="#BFBFBF"/>
</svg>
