<svg width="24" height="24" viewBox="0 0 24 24" fill="none" xmlns="http://www.w3.org/2000/svg">
<g clip-path="url(#clip0_4090_15840)">
<g clip-path="url(#clip1_4090_15840)">
<path d="M18.2898 12.7262C18.3234 16.3512 21.4699 17.5575 21.5048 17.5729C21.4782 17.658 21.002 19.2921 19.8471 20.9799C18.8487 22.4392 17.8124 23.8931 16.1801 23.9232C14.5762 23.9527 14.0604 22.972 12.2266 22.972C10.3934 22.972 9.82041 23.8931 8.3021 23.9527C6.72648 24.0124 5.52666 22.3748 4.51996 20.9209C2.46288 17.9469 0.890848 12.5171 3.00169 8.85185C4.05031 7.03169 5.92427 5.87909 7.95829 5.84953C9.50552 5.82002 10.9659 6.89046 11.9117 6.89046C12.857 6.89046 14.6317 5.60317 16.4973 5.79222C17.2784 5.82473 19.4707 6.10771 20.8785 8.16834C20.7651 8.23866 18.2626 9.6955 18.2898 12.7262V12.7262ZM15.2754 3.82467C16.1119 2.8121 16.6749 1.40252 16.5213 0C15.3155 0.048461 13.8575 0.803489 12.9926 1.81549C12.2175 2.71167 11.5387 4.14606 11.7219 5.52083C13.0658 5.62481 14.4388 4.83787 15.2754 3.82467" fill="black"/>
</g>
</g>
<defs>
<clipPath id="clip0_4090_15840">
<rect width="24" height="24" fill="white"/>
</clipPath>
<clipPath id="clip1_4090_15840">
<rect width="19.5048" height="24" fill="white" transform="translate(2)"/>
</clipPath>
</defs>
</svg>
